<svg width="21" height="20" viewBox="0 0 21 20" fill="none" xmlns="http://www.w3.org/2000/svg">
<path d="M20 10.126C18.8858 9.32506 17.5306 8.93025 16.1606 9.00742C14.7905 9.08459 13.4883 9.62906 12.471 10.5501C11.4537 11.4711 10.7829 12.7129 10.5704 14.0686C10.3578 15.4243 10.6164 16.8119 11.303 18H1C0.734784 18 0.48043 17.8946 0.292893 17.7071C0.105357 17.5196 0 17.2652 0 17V1C0 0.734784 0.105357 0.48043 0.292893 0.292893C0.48043 0.105357 0.734784 0 1 0H8.414L10.414 2H19C19.2652 2 19.5196 2.10536 19.7071 2.29289C19.8946 2.48043 20 2.73478 20 3V10.126ZM18 14H21V16H18V19.5L13 15L18 10.5V14Z" fill="#03053D"/>
</svg>
