<svg width="23" height="23" viewBox="0 0 23 23" fill="none" xmlns="http://www.w3.org/2000/svg">
<g clip-path="url(#clip0_63_1616)">
<path d="M11.4996 8.36377C9.7694 8.36377 8.36328 9.76989 8.36328 11.5001C8.36328 13.2304 9.7694 14.6365 11.4996 14.6365C13.2299 14.6365 14.636 13.2304 14.636 11.5001C14.636 9.76989 13.2298 8.36377 11.4996 8.36377Z" fill="#7D90B2"/>
<path d="M11.5 3.65918C6.27273 3.65918 1.80865 6.91051 0 11.5001C1.80865 16.0896 6.27273 19.341 11.5 19.341C16.7325 19.341 21.1914 16.0896 23 11.5001C21.1914 6.91051 16.7325 3.65918 11.5 3.65918ZM11.5 16.7273C8.61457 16.7273 6.27273 14.3855 6.27273 11.5C6.27273 8.61459 8.61457 6.2728 11.5 6.2728C14.3855 6.2728 16.7273 8.61464 16.7273 11.5001C16.7273 14.3856 14.3855 16.7273 11.5 16.7273Z" fill="#7D90B2"/>
</g>
<defs>
<clipPath id="clip0_63_1616">
<rect width="23" height="23" fill="white"/>
</clipPath>
</defs>
</svg>
